<?xml version="1.0" encoding="UTF-8" standalone="no"?>
<!-- Created with Inkscape (http://www.inkscape.org/) -->

<svg
   width="1920.5292mm"
   height="1080mm"
   viewBox="0 0 1920.5292 1080"
   version="1.1"
   id="svg1"
   inkscape:export-filename="bitmap.png"
   inkscape:export-xdpi="92.36364"
   inkscape:export-ydpi="92.36364"
   inkscape:version="1.4 (86a8ad7, 2024-10-11)"
   sodipodi:docname="HomeScreenBackground.svg"
   xmlns:inkscape="http://www.inkscape.org/namespaces/inkscape"
   xmlns:sodipodi="http://sodipodi.sourceforge.net/DTD/sodipodi-0.dtd"
   xmlns="http://www.w3.org/2000/svg"
   xmlns:svg="http://www.w3.org/2000/svg">
  <sodipodi:namedview
     id="namedview1"
     pagecolor="#ffffff"
     bordercolor="#999999"
     borderopacity="1"
     inkscape:showpageshadow="2"
     inkscape:pageopacity="0"
     inkscape:pagecheckerboard="0"
     inkscape:deskcolor="#d1d1d1"
     inkscape:document-units="mm"
     inkscape:zoom="0.125"
     inkscape:cx="3696"
     inkscape:cy="2988"
     inkscape:window-width="1920"
     inkscape:window-height="991"
     inkscape:window-x="-9"
     inkscape:window-y="-9"
     inkscape:window-maximized="1"
     inkscape:current-layer="layer1" />
  <defs
     id="defs1">
    <inkscape:path-effect
       effect="bspline"
       id="path-effect13"
       is_visible="true"
       lpeversion="1.3"
       weight="33.333333"
       steps="2"
       helper_size="0"
       apply_no_weight="true"
       apply_with_weight="true"
       only_selected="false"
       uniform="false" />
    <inkscape:path-effect
       effect="bspline"
       id="path-effect11"
       is_visible="true"
       lpeversion="1.3"
       weight="33.333333"
       steps="2"
       helper_size="0"
       apply_no_weight="true"
       apply_with_weight="true"
       only_selected="false"
       uniform="false" />
    <inkscape:path-effect
       effect="bspline"
       id="path-effect9"
       is_visible="true"
       lpeversion="1.3"
       weight="33.333333"
       steps="2"
       helper_size="0"
       apply_no_weight="true"
       apply_with_weight="true"
       only_selected="false"
       uniform="false" />
    <inkscape:path-effect
       effect="bspline"
       id="path-effect8"
       is_visible="true"
       lpeversion="1.3"
       weight="33.333333"
       steps="2"
       helper_size="0"
       apply_no_weight="true"
       apply_with_weight="true"
       only_selected="false"
       uniform="false" />
    <inkscape:path-effect
       effect="bspline"
       id="path-effect7"
       is_visible="true"
       lpeversion="1.3"
       weight="33.333333"
       steps="2"
       helper_size="0"
       apply_no_weight="true"
       apply_with_weight="true"
       only_selected="false"
       uniform="false" />
    <inkscape:path-effect
       effect="bspline"
       id="path-effect5"
       is_visible="true"
       lpeversion="1.3"
       weight="33.333333"
       steps="2"
       helper_size="0"
       apply_no_weight="true"
       apply_with_weight="true"
       only_selected="false"
       uniform="false" />
    <inkscape:path-effect
       effect="bspline"
       id="path-effect3"
       is_visible="true"
       lpeversion="1.3"
       weight="33.333333"
       steps="2"
       helper_size="0"
       apply_no_weight="true"
       apply_with_weight="true"
       only_selected="false"
       uniform="false" />
    <inkscape:path-effect
       effect="bspline"
       id="path-effect1"
       is_visible="true"
       lpeversion="1.3"
       weight="33.333333"
       steps="2"
       helper_size="0"
       apply_no_weight="true"
       apply_with_weight="true"
       only_selected="false"
       uniform="false" />
    <clipPath
       clipPathUnits="userSpaceOnUse"
       id="clipPath21">
      <rect
         style="fill:none;fill-opacity:1;fill-rule:nonzero;stroke-width:0.264583"
         id="rect21"
         width="1920"
         height="1080"
         x="-328.12048"
         y="-2482.1436"
         rx="2.3980812e-14"
         transform="rotate(113.02656)" />
    </clipPath>
    <clipPath
       clipPathUnits="userSpaceOnUse"
       id="clipPath22">
      <rect
         style="fill:none;fill-opacity:1;fill-rule:nonzero;stroke-width:0.264583"
         id="rect22"
         width="1920"
         height="1080"
         x="-390.84186"
         y="-1326.4869"
         rx="2.3980812e-14"
         transform="rotate(58.113853)" />
    </clipPath>
    <clipPath
       clipPathUnits="userSpaceOnUse"
       id="clipPath23">
      <rect
         style="fill:none;fill-opacity:1;fill-rule:nonzero;stroke-width:0.264583"
         id="rect23"
         width="1920"
         height="1080"
         x="101.63285"
         y="-223.86449"
         rx="2.3980812e-14" />
    </clipPath>
    <clipPath
       clipPathUnits="userSpaceOnUse"
       id="clipPath24">
      <rect
         style="fill:none;fill-opacity:1;fill-rule:nonzero;stroke-width:0.264583"
         id="rect24"
         width="1920"
         height="1080"
         x="-48.683334"
         y="-176.67952"
         rx="2.3980812e-14" />
    </clipPath>
    <clipPath
       clipPathUnits="userSpaceOnUse"
       id="clipPath25">
      <rect
         style="fill:none;fill-opacity:1;fill-rule:nonzero;stroke-width:0.264583"
         id="rect25"
         width="1920"
         height="1080"
         x="-1740.8252"
         y="-1261.778"
         rx="2.3980812e-14"
         transform="rotate(-175.53755)" />
    </clipPath>
    <clipPath
       clipPathUnits="userSpaceOnUse"
       id="clipPath26">
      <rect
         style="fill:none;fill-opacity:1;fill-rule:nonzero;stroke-width:0.264583"
         id="rect26"
         width="1920"
         height="1080"
         x="-1576.2905"
         y="-1234.5948"
         rx="2.3980812e-14"
         transform="rotate(-175.53755)" />
    </clipPath>
    <clipPath
       clipPathUnits="userSpaceOnUse"
       id="clipPath27">
      <rect
         style="fill:none;fill-opacity:1;fill-rule:nonzero;stroke-width:0.264583"
         id="rect27"
         width="1920"
         height="1080"
         x="162.78859"
         y="-19.082224"
         rx="2.3980812e-14"
         transform="rotate(5.9827122)" />
    </clipPath>
    <clipPath
       clipPathUnits="userSpaceOnUse"
       id="clipPath28">
      <rect
         style="fill:none;fill-opacity:1;fill-rule:nonzero;stroke-width:0.264583"
         id="rect28"
         width="1920"
         height="1080"
         x="96.941307"
         y="-114.61076"
         rx="2.3980812e-14"
         transform="rotate(5.9827122)" />
    </clipPath>
  </defs>
  <g
     inkscape:label="Layer 1"
     inkscape:groupmode="layer"
     id="layer1"
     transform="translate(0.52916667)">
    <path
       style="fill:#fec5bb;fill-opacity:1;stroke-width:0.264583"
       d="m -24.846056,371.92237 c 88.882273,132.17077 249.741266,261.26779 421.104006,265.8772 171.36274,4.60941 353.22198,-115.26399 525.60912,-152.40455 172.38713,-37.14057 335.29203,8.45231 446.97183,-42.52197 111.6798,-50.97429 172.1287,-198.51082 195.1816,-298.1517 23.0529,-99.640889 8.7091,-151.3811169 -2.8175,-178.788649 -11.5266,-27.407533 -20.2354,-30.481223 -303.7934,-31.505787 -283.55792,-1.024564 -841.9426,-5e-6 -1121.90897,6.147585 -279.96638,6.147589 -281.50321,17.417741 -273.8187,90.676531 7.68452,73.25879 24.58974,208.50058 113.472014,340.67134 z"
       id="path1"
       inkscape:path-effect="#path-effect1"
       inkscape:original-d="M -96.822767,374.99612 C 64.036222,504.09313 224.89521,633.19016 385.75419,762.28717 567.6207,642.40899 749.47993,522.53557 931.34282,402.65977 c 162.91138,45.59469 325.81628,91.18758 488.72448,136.78135 60.4513,-147.54238 120.9003,-295.0789 181.3505,-442.618353 -14.3444,-51.742303 -28.6882,-103.4825339 -43.0323,-155.223801 -8.7091,-3.073799 -17.4179,-6.147477 -26.1268,-9.221216 -558.40702,1.024599 -1116.7917,2.049158 -1675.18755,3.073739 -1.5369,11.270599 -3.07373,22.540751 -4.6106,33.811125 16.9059,135.247206 33.81112,270.488996 50.716683,405.733506 z"
       transform="rotate(-5.9827122,1048.1465,984.85799)"
       clip-path="url(#clipPath28)" />
    <path
       style="fill:#fcd5ce;fill-opacity:1;stroke-width:0.264583"
       d="m -24.846056,371.92237 c 88.882273,132.17077 249.741266,261.26779 421.104006,265.8772 171.36274,4.60941 353.22198,-115.26399 525.60912,-152.40455 172.38713,-37.14057 335.29203,8.45231 446.97183,-42.52197 111.6798,-50.97429 172.1287,-198.51082 195.1816,-298.1517 23.0529,-99.640889 8.7091,-151.3811169 -2.8175,-178.788649 -11.5266,-27.407533 -20.2354,-30.481223 -303.7934,-31.505787 -283.55792,-1.024564 -841.9426,-5e-6 -1121.90897,6.147585 -279.96638,6.147589 -281.50321,17.417741 -273.8187,90.676531 7.68452,73.25879 24.58974,208.50058 113.472014,340.67134 z"
       id="path2"
       inkscape:path-effect="#path-effect3"
       inkscape:original-d="M -96.822767,374.99612 C 64.036222,504.09313 224.89521,633.19016 385.75419,762.28717 567.6207,642.40899 749.47993,522.53557 931.34282,402.65977 c 162.91138,45.59469 325.81628,91.18758 488.72448,136.78135 60.4513,-147.54238 120.9003,-295.0789 181.3505,-442.618353 -14.3444,-51.742303 -28.6882,-103.4825339 -43.0323,-155.223801 -8.7091,-3.073799 -17.4179,-6.147477 -26.1268,-9.221216 -558.40702,1.024599 -1116.7917,2.049158 -1675.18755,3.073739 -1.5369,11.270599 -3.07373,22.540751 -4.6106,33.811125 16.9059,135.247206 33.81112,270.488996 50.716683,405.733506 z"
       transform="rotate(-5.9827122,101.188,1567.1328)"
       clip-path="url(#clipPath27)" />
    <path
       style="fill:#ffb3c6;fill-opacity:1;stroke-width:0.264583"
       d="m -24.846056,371.92237 c 88.882273,132.17077 249.741266,261.26779 421.104006,265.8772 171.36274,4.60941 353.22198,-115.26399 525.60912,-152.40455 172.38713,-37.14057 335.29203,8.45231 446.97183,-42.52197 111.6798,-50.97429 172.1287,-198.51082 195.1816,-298.1517 23.0529,-99.640889 8.7091,-151.3811169 -2.8175,-178.788649 -11.5266,-27.407533 -20.2354,-30.481223 -303.7934,-31.505787 -283.55792,-1.024564 -841.9426,-5e-6 -1121.90897,6.147585 -279.96638,6.147589 -281.50321,17.417741 -273.8187,90.676531 7.68452,73.25879 24.58974,208.50058 113.472014,340.67134 z"
       id="path3"
       inkscape:path-effect="#path-effect5"
       inkscape:original-d="M -96.822767,374.99612 C 64.036222,504.09313 224.89521,633.19016 385.75419,762.28717 567.6207,642.40899 749.47993,522.53557 931.34282,402.65977 c 162.91138,45.59469 325.81628,91.18758 488.72448,136.78135 60.4513,-147.54238 120.9003,-295.0789 181.3505,-442.618353 -14.3444,-51.742303 -28.6882,-103.4825339 -43.0323,-155.223801 -8.7091,-3.073799 -17.4179,-6.147477 -26.1268,-9.221216 -558.40702,1.024599 -1116.7917,2.049158 -1675.18755,3.073739 -1.5369,11.270599 -3.07373,22.540751 -4.6106,33.811125 16.9059,135.247206 33.81112,270.488996 50.716683,405.733506 z"
       transform="rotate(175.53755,764.0942,648.00506)"
       sodipodi:nodetypes="cccccccccc"
       clip-path="url(#clipPath26)" />
    <path
       style="fill:#ffc2d1;fill-opacity:1;stroke-width:0.264583"
       d="m -24.846056,371.92237 c 88.882273,132.17077 249.741266,261.26779 421.104006,265.8772 171.36274,4.60941 353.22198,-115.26399 525.60912,-152.40455 172.38713,-37.14057 335.29203,8.45231 446.97183,-42.52197 111.6798,-50.97429 172.1287,-198.51082 195.1816,-298.1517 23.0529,-99.640889 8.7091,-151.3811169 -2.8175,-178.788649 -11.5266,-27.407533 -20.2354,-30.481223 -303.7934,-31.505787 -283.55792,-1.024564 -841.9426,-5e-6 -1121.90897,6.147585 -279.96638,6.147589 -281.50321,17.417741 -273.8187,90.676531 7.68452,73.25879 24.58974,208.50058 113.472014,340.67134 z"
       id="path5"
       inkscape:path-effect="#path-effect7"
       inkscape:original-d="M -96.822767,374.99612 C 64.036222,504.09313 224.89521,633.19016 385.75419,762.28717 567.6207,642.40899 749.47993,522.53557 931.34282,402.65977 c 162.91138,45.59469 325.81628,91.18758 488.72448,136.78135 60.4513,-147.54238 120.9003,-295.0789 181.3505,-442.618353 -14.3444,-51.742303 -28.6882,-103.4825339 -43.0323,-155.223801 -8.7091,-3.073799 -17.4179,-6.147477 -26.1268,-9.221216 -558.40702,1.024599 -1116.7917,2.049158 -1675.18755,3.073739 -1.5369,11.270599 -3.07373,22.540751 -4.6106,33.811125 16.9059,135.247206 33.81112,270.488996 50.716683,405.733506 z"
       transform="rotate(175.53755,845.83193,664.80195)"
       sodipodi:nodetypes="cccccccccc"
       clip-path="url(#clipPath25)" />
    <path
       style="fill:#ffb3c6;fill-opacity:1;stroke-width:0.264583"
       d="m 1647.4838,452.44221 c -46.3672,-1.08671 -70.9998,32.9642 -50.7135,73.17368 20.2863,40.20947 85.4889,86.57576 131.8563,87.66205 46.3674,1.08629 73.8974,-43.10655 53.6111,-83.31595 -20.2863,-40.2094 -88.3868,-76.43307 -134.7539,-77.51978 z"
       id="path7"
       inkscape:path-effect="#path-effect8"
       inkscape:original-d="m 1625.7492,417.30459 c -24.6326,34.05089 -49.2652,68.10179 -73.8977,102.15268 65.2051,46.36812 130.4077,92.73437 195.6115,139.10154 27.531,-44.1946 55.061,-88.38742 82.5915,-132.58115 -68.1031,-36.22508 -136.2036,-72.44871 -204.3053,-108.67307 z"
       transform="translate(48.683333,176.67952)"
       clip-path="url(#clipPath24)" />
    <path
       style="fill:#ffb3c6;fill-opacity:1;stroke-width:0.264583"
       d="m 1742.1884,153.95323 c -45.8458,10.50477 -123.0478,38.03473 -155.6496,80.78004 -32.6018,42.74531 -20.6039,100.7037 12.5639,134.75498 33.1679,34.05129 87.5034,44.19392 118.2942,28.61703 30.7907,-15.57689 38.0354,-56.87183 67.8789,-63.39193 29.8434,-6.5201 82.2833,21.73434 116.3343,12.31553 34.0511,-9.41881 49.7116,-56.50952 27.113,-83.31561 -22.5986,-26.8061 -83.4543,-33.32635 -108.449,-47.81633 -24.9947,-14.48998 -14.1276,-36.94863 -15.939,-51.43844 -1.8114,-14.48981 -16.3008,-21.01003 -62.1467,-10.50527 z"
       id="path9"
       inkscape:path-effect="#path-effect9"
       inkscape:original-d="m 1773.5445,136.92807 c -77.2019,27.52994 -154.4039,55.05988 -231.6058,82.58982 11.9983,57.9607 23.9962,115.91908 35.9943,173.87863 54.3376,10.14301 108.6731,20.28563 163.0096,30.42846 7.245,-41.29659 14.4897,-82.59154 21.7346,-123.88731 52.442,28.25557 104.8819,56.51 157.3228,84.76501 15.6612,-47.0926 31.3217,-94.18333 46.9826,-141.275 -60.8581,-6.52052 -121.7138,-13.04077 -182.5708,-19.56115 10.8676,-22.45955 21.7347,-44.91821 32.602,-67.37731 -14.4901,-6.52051 -28.9795,-13.04077 -43.4693,-19.56115 z"
       transform="translate(-101.63285,223.86448)"
       clip-path="url(#clipPath23)" />
    <path
       style="fill:#ffb3c6;fill-opacity:1;stroke-width:0.264583"
       d="m 1647.4838,452.44221 c -46.3672,-1.08671 -70.9998,32.9642 -50.7135,73.17368 20.2863,40.20947 85.4889,86.57576 131.8563,87.66205 46.3674,1.08629 73.8974,-43.10655 53.6111,-83.31595 -20.2863,-40.2094 -88.3868,-76.43307 -134.7539,-77.51978 z"
       id="path10"
       inkscape:path-effect="#path-effect11"
       inkscape:original-d="m 1625.7492,417.30459 c -24.6326,34.05089 -49.2652,68.10179 -73.8977,102.15268 65.2051,46.36812 130.4077,92.73437 195.6115,139.10154 27.531,-44.1946 55.061,-88.38742 82.5915,-132.58115 -68.1031,-36.22508 -136.2036,-72.44871 -204.3053,-108.67307 z"
       transform="rotate(-58.113853,1389.1452,311.51939)"
       clip-path="url(#clipPath22)" />
    <path
       style="fill:#ff8fab;fill-opacity:1;stroke-width:0.264583"
       d="m 1647.4838,452.44221 c -46.3672,-1.08671 -70.9998,32.9642 -50.7135,73.17368 20.2863,40.20947 85.4889,86.57576 131.8563,87.66205 46.3674,1.08629 73.8974,-43.10655 53.6111,-83.31595 -20.2863,-40.2094 -88.3868,-76.43307 -134.7539,-77.51978 z"
       id="path11"
       inkscape:path-effect="#path-effect13"
       inkscape:original-d="m 1625.7492,417.30459 c -24.6326,34.05089 -49.2652,68.10179 -73.8977,102.15268 65.2051,46.36812 130.4077,92.73437 195.6115,139.10154 27.531,-44.1946 55.061,-88.38742 82.5915,-132.58115 -68.1031,-36.22508 -136.2036,-72.44871 -204.3053,-108.67307 z"
       transform="rotate(-113.02656,985.09409,1132.5373)"
       clip-path="url(#clipPath21)" />
  </g>
</svg>
